<?xml version="1.0" encoding="utf-8"?>
<!-- Generator: Adobe Illustrator 22.1.0, SVG Export Plug-In . SVG Version: 6.00 Build 0)  -->
<svg version="1.1" id="Capa_1" xmlns="http://www.w3.org/2000/svg" xmlns:xlink="http://www.w3.org/1999/xlink" x="0px" y="0px"
	 viewBox="0 0 157.8 46.8" style="enable-background:new 0 0 157.8 46.8;" xml:space="preserve">
<style type="text/css">
	.st0{fill:#3F53A0;}
	.st1{fill:#D62A6C;}
	.st2{fill:#706F6F;}
	.st3{fill:#575756;}
</style>
<path class="st0" d="M39.6,41.1H0V1.5h39.6V41.1z M7.2,33.9h25.1V8.8H7.2V33.9L7.2,33.9z"/>
<g>
	<polygon class="st1" points="40.8,0.1 19.9,21.2 11.8,14.1 5.6,21.2 20.3,34.2 47.5,6.7 	"/>
</g>
<g>
	<path class="st2" d="M63,5.7c-0.4-0.5-0.9-0.9-1.4-1.1s-1.2-0.4-1.8-0.4c-0.8,0-1.4,0.1-2.1,0.4c-0.6,0.3-1.1,0.7-1.6,1.2
		c-0.4,0.5-0.8,1.1-1,1.7s-0.4,1.4-0.4,2.1c0,0.7,0.1,1.4,0.3,2c0.2,0.6,0.6,1.2,1,1.7c0.4,0.5,1,0.9,1.6,1.1
		c0.6,0.3,1.3,0.4,2.1,0.4c0.8,0,1.5-0.2,2-0.5c0.6-0.3,1.1-0.8,1.5-1.3l1.5,1.2c-0.1,0.1-0.3,0.3-0.5,0.6c-0.3,0.3-0.6,0.5-1,0.8
		c-0.4,0.3-0.9,0.5-1.5,0.7s-1.3,0.3-2,0.3c-1.1,0-2-0.2-2.9-0.6s-1.6-0.9-2.2-1.6c-0.6-0.7-1.1-1.4-1.4-2.2
		c-0.3-0.8-0.5-1.7-0.5-2.5c0-1,0.2-2,0.5-2.9c0.3-0.9,0.8-1.6,1.4-2.3S56.1,3.3,57,3c0.9-0.4,1.8-0.5,2.8-0.5
		c0.9,0,1.8,0.2,2.6,0.5c0.9,0.3,1.6,0.9,2.1,1.6L63,5.7z"/>
	<path class="st2" d="M67.9,12.3c0,0.4,0.1,0.8,0.3,1.1c0.2,0.3,0.4,0.6,0.7,0.8c0.3,0.2,0.6,0.4,1,0.5s0.7,0.2,1.1,0.2
		c0.5,0,1-0.1,1.4-0.4c0.4-0.2,0.8-0.6,1.1-1l1.3,1c-1,1.2-2.3,1.8-4,1.8c-0.7,0-1.4-0.1-1.9-0.4c-0.6-0.2-1.1-0.6-1.5-1
		s-0.7-0.9-0.9-1.5S66,12.4,66,11.7s0.1-1.3,0.4-1.9c0.2-0.6,0.6-1.1,1-1.5s0.9-0.8,1.5-1C69.4,7.1,70,7,70.7,7c0.8,0,1.5,0.1,2,0.4
		c0.6,0.3,1,0.6,1.4,1.1c0.4,0.4,0.6,1,0.8,1.5c0.2,0.6,0.2,1.1,0.2,1.7v0.6H67.9z M73.3,11c0-0.4-0.1-0.7-0.2-1
		c-0.1-0.3-0.3-0.6-0.5-0.8c-0.2-0.2-0.5-0.4-0.8-0.6c-0.3-0.1-0.7-0.2-1.1-0.2c-0.4,0-0.8,0.1-1.1,0.2c-0.3,0.2-0.6,0.4-0.9,0.6
		c-0.2,0.3-0.4,0.5-0.6,0.8c-0.1,0.3-0.2,0.6-0.2,0.9H73.3z"/>
	<path class="st2" d="M77.1,7.2h1.7v1.4h0C79,8.4,79.2,8.1,79.3,8c0.2-0.2,0.4-0.4,0.6-0.5s0.5-0.2,0.8-0.3C81,7,81.3,7,81.6,7
		c0.3,0,0.5,0,0.8,0.1l-0.1,1.8c-0.1,0-0.3-0.1-0.4-0.1s-0.3,0-0.4,0c-0.8,0-1.5,0.2-1.9,0.7c-0.4,0.5-0.7,1.2-0.7,2.2v4.5h-1.7V7.2
		z"/>
	<path class="st2" d="M89,8.7h-2.5v4.1c0,0.3,0,0.5,0,0.8s0.1,0.5,0.1,0.7c0.1,0.2,0.2,0.4,0.4,0.5c0.2,0.1,0.4,0.2,0.8,0.2
		c0.2,0,0.4,0,0.6-0.1c0.2,0,0.4-0.1,0.6-0.2v1.6c-0.2,0.1-0.5,0.2-0.8,0.2c-0.3,0-0.6,0.1-0.8,0.1c-0.7,0-1.2-0.1-1.5-0.3
		c-0.4-0.2-0.6-0.4-0.8-0.7s-0.3-0.6-0.3-1c0-0.4,0-0.7,0-1.1V8.7h-2V7.2h2V4.7h1.7v2.5H89V8.7z"/>
	<path class="st2" d="M90.9,4c0-0.3,0.1-0.6,0.4-0.9s0.5-0.4,0.9-0.4s0.6,0.1,0.9,0.4s0.4,0.5,0.4,0.9c0,0.3-0.1,0.6-0.4,0.9
		s-0.5,0.4-0.9,0.4s-0.6-0.1-0.9-0.4S90.9,4.3,90.9,4z M91.3,7.2H93v9h-1.7V7.2z"/>
	<path class="st2" d="M96.4,8.7h-1.9V7.2h1.9v-2c0-1.2,0.2-2.1,0.7-2.7c0.5-0.6,1.3-0.9,2.4-0.9c0.2,0,0.4,0,0.6,0
		c0.2,0,0.4,0.1,0.7,0.1l-0.2,1.5c-0.2-0.1-0.3-0.1-0.5-0.1c-0.2,0-0.3,0-0.5,0c-0.3,0-0.6,0-0.8,0.1c-0.2,0.1-0.3,0.2-0.4,0.4
		c-0.1,0.2-0.2,0.4-0.2,0.6s0,0.5,0,0.8v2.1h2v1.5h-2.1v7.5h-1.7V8.7z"/>
	<path class="st2" d="M101.8,4c0-0.3,0.1-0.6,0.4-0.9s0.5-0.4,0.9-0.4s0.6,0.1,0.9,0.4s0.4,0.5,0.4,0.9c0,0.3-0.1,0.6-0.4,0.9
		s-0.5,0.4-0.9,0.4s-0.6-0.1-0.9-0.4S101.8,4.3,101.8,4z M102.2,7.2h1.7v9h-1.7V7.2z"/>
	<path class="st2" d="M113.1,9.6c-0.3-0.3-0.6-0.6-1-0.8c-0.3-0.2-0.8-0.3-1.2-0.3c-0.5,0-0.9,0.1-1.2,0.3c-0.3,0.2-0.6,0.4-0.9,0.7
		c-0.2,0.3-0.4,0.6-0.5,1s-0.2,0.8-0.2,1.2c0,0.4,0.1,0.8,0.2,1.2s0.3,0.7,0.6,1c0.3,0.3,0.6,0.5,0.9,0.7c0.4,0.2,0.8,0.2,1.2,0.2
		c0.5,0,0.9-0.1,1.2-0.3c0.3-0.2,0.7-0.4,1-0.8l1.2,1.2c-0.4,0.5-1,0.8-1.5,1.1c-0.6,0.2-1.2,0.3-1.9,0.3c-0.7,0-1.3-0.1-1.9-0.3
		c-0.6-0.2-1.1-0.5-1.5-1c-0.4-0.4-0.7-0.9-1-1.5c-0.2-0.6-0.3-1.2-0.3-1.9s0.1-1.3,0.3-1.9c0.2-0.6,0.5-1.1,1-1.5
		c0.4-0.4,0.9-0.7,1.5-1c0.6-0.2,1.2-0.4,1.9-0.4c0.7,0,1.3,0.1,1.9,0.4s1.1,0.6,1.6,1.1L113.1,9.6z"/>
	<path class="st2" d="M115.8,8.3c0.5-0.4,1-0.8,1.7-1c0.6-0.2,1.3-0.3,1.9-0.3c0.7,0,1.2,0.1,1.7,0.2s0.9,0.4,1.2,0.7
		c0.3,0.3,0.5,0.6,0.7,1c0.1,0.4,0.2,0.7,0.2,1.1v4.6c0,0.3,0,0.6,0,0.9c0,0.3,0,0.5,0.1,0.8h-1.5c0-0.5-0.1-0.9-0.1-1.4h0
		c-0.4,0.6-0.8,1-1.3,1.2c-0.5,0.2-1.1,0.4-1.8,0.4c-0.4,0-0.8-0.1-1.2-0.2c-0.4-0.1-0.7-0.3-1-0.5s-0.5-0.5-0.7-0.8
		c-0.2-0.3-0.2-0.7-0.2-1.2c0-0.6,0.1-1.1,0.4-1.5c0.3-0.4,0.6-0.7,1.1-1c0.4-0.2,1-0.4,1.6-0.5s1.2-0.2,1.9-0.2h1.3v-0.4
		c0-0.2,0-0.5-0.1-0.7c-0.1-0.2-0.2-0.4-0.4-0.6c-0.2-0.2-0.4-0.3-0.7-0.4c-0.3-0.1-0.6-0.2-1-0.2c-0.3,0-0.6,0-0.9,0.1
		s-0.5,0.1-0.7,0.2c-0.2,0.1-0.4,0.2-0.6,0.3c-0.2,0.1-0.3,0.2-0.5,0.4L115.8,8.3z M120.7,11.9c-0.4,0-0.8,0-1.2,0.1
		c-0.4,0-0.8,0.1-1.2,0.3c-0.3,0.1-0.6,0.3-0.9,0.5s-0.3,0.5-0.3,0.9c0,0.5,0.2,0.9,0.5,1.1c0.3,0.2,0.8,0.3,1.4,0.3
		c0.5,0,0.9-0.1,1.2-0.2c0.3-0.2,0.6-0.4,0.8-0.6c0.2-0.3,0.3-0.5,0.4-0.8c0.1-0.3,0.1-0.6,0.1-0.9v-0.6H120.7z"/>
	<path class="st2" d="M130.5,8.7H128v4.1c0,0.3,0,0.5,0,0.8s0.1,0.5,0.1,0.7c0.1,0.2,0.2,0.4,0.4,0.5c0.2,0.1,0.4,0.2,0.8,0.2
		c0.2,0,0.4,0,0.6-0.1c0.2,0,0.4-0.1,0.6-0.2v1.6c-0.2,0.1-0.5,0.2-0.8,0.2c-0.3,0-0.6,0.1-0.8,0.1c-0.7,0-1.2-0.1-1.5-0.3
		c-0.4-0.2-0.6-0.4-0.8-0.7s-0.3-0.6-0.3-1c0-0.4,0-0.7,0-1.1V8.7h-2V7.2h2V4.7h1.7v2.5h2.5V8.7z"/>
	<path class="st2" d="M132.4,4c0-0.3,0.1-0.6,0.4-0.9s0.5-0.4,0.9-0.4s0.6,0.1,0.9,0.4s0.4,0.5,0.4,0.9c0,0.3-0.1,0.6-0.4,0.9
		s-0.5,0.4-0.9,0.4s-0.6-0.1-0.9-0.4S132.4,4.3,132.4,4z M132.8,7.2h1.7v9h-1.7V7.2z"/>
	<path class="st2" d="M136.8,11.7c0-0.7,0.1-1.3,0.4-1.8c0.2-0.6,0.6-1.1,1-1.5c0.4-0.4,0.9-0.8,1.5-1c0.6-0.2,1.2-0.4,1.9-0.4
		c0.7,0,1.3,0.1,1.9,0.4c0.6,0.2,1.1,0.6,1.5,1c0.4,0.4,0.8,0.9,1,1.5c0.2,0.6,0.4,1.2,0.4,1.8s-0.1,1.3-0.4,1.9
		c-0.2,0.6-0.6,1.1-1,1.5s-0.9,0.8-1.5,1c-0.6,0.2-1.2,0.4-1.9,0.4c-0.7,0-1.3-0.1-1.9-0.4c-0.6-0.2-1.1-0.6-1.5-1s-0.8-0.9-1-1.5
		C136.9,13,136.8,12.4,136.8,11.7z M138.6,11.7c0,0.5,0.1,0.9,0.2,1.3c0.1,0.4,0.3,0.7,0.6,1c0.3,0.3,0.6,0.5,0.9,0.6
		c0.4,0.2,0.8,0.2,1.2,0.2s0.9-0.1,1.2-0.2c0.4-0.2,0.7-0.4,0.9-0.6c0.3-0.3,0.5-0.6,0.6-1c0.1-0.4,0.2-0.8,0.2-1.3
		s-0.1-0.9-0.2-1.3c-0.1-0.4-0.3-0.7-0.6-1c-0.3-0.3-0.6-0.5-0.9-0.6s-0.8-0.2-1.2-0.2s-0.9,0.1-1.2,0.2c-0.4,0.2-0.7,0.4-0.9,0.6
		c-0.3,0.3-0.4,0.6-0.6,1C138.7,10.8,138.6,11.3,138.6,11.7z"/>
	<path class="st2" d="M148.5,7.2h1.7v1.4h0c0.2-0.5,0.6-0.9,1.1-1.2c0.5-0.3,1.1-0.4,1.8-0.4c0.4,0,0.8,0.1,1.2,0.2
		c0.4,0.1,0.7,0.3,1,0.6c0.3,0.3,0.5,0.6,0.7,1.1c0.2,0.4,0.3,1,0.3,1.5v5.8h-1.7v-5.3c0-0.4-0.1-0.8-0.2-1.1
		c-0.1-0.3-0.3-0.5-0.5-0.7c-0.2-0.2-0.4-0.3-0.7-0.4c-0.2-0.1-0.5-0.1-0.8-0.1c-0.4,0-0.7,0.1-1,0.2c-0.3,0.1-0.6,0.3-0.8,0.5
		c-0.2,0.2-0.4,0.6-0.5,0.9c-0.1,0.4-0.2,0.8-0.2,1.3v4.6h-1.7V7.2z"/>
	<path class="st3" d="M56.5,27.3h-4.3v-1.7h10.5v1.7h-4.3V39h-1.8V27.3z"/>
	<path class="st3" d="M62.4,30h1.7v1.4h0c0.1-0.2,0.3-0.5,0.5-0.7s0.4-0.4,0.6-0.5c0.2-0.1,0.5-0.2,0.8-0.3s0.6-0.1,0.8-0.1
		c0.3,0,0.5,0,0.8,0.1l-0.1,1.8c-0.1,0-0.3-0.1-0.4-0.1c-0.1,0-0.3,0-0.4,0c-0.8,0-1.5,0.2-1.9,0.7s-0.7,1.2-0.7,2.2V39h-1.7V30z"/>
	<path class="st3" d="M69.4,31.1c0.5-0.4,1-0.8,1.7-1s1.3-0.3,1.9-0.3c0.7,0,1.2,0.1,1.7,0.2c0.5,0.2,0.9,0.4,1.2,0.7
		c0.3,0.3,0.5,0.6,0.7,1c0.1,0.4,0.2,0.7,0.2,1.1v4.6c0,0.3,0,0.6,0,0.9c0,0.3,0,0.5,0.1,0.8h-1.5c0-0.5-0.1-0.9-0.1-1.4h0
		c-0.4,0.6-0.8,1-1.3,1.2s-1.1,0.4-1.8,0.4c-0.4,0-0.8-0.1-1.2-0.2c-0.4-0.1-0.7-0.3-1-0.5c-0.3-0.2-0.5-0.5-0.7-0.8
		C69,37.4,69,37,69,36.6c0-0.6,0.1-1.1,0.4-1.5c0.3-0.4,0.6-0.7,1.1-1c0.4-0.2,1-0.4,1.6-0.5c0.6-0.1,1.2-0.2,1.9-0.2h1.3v-0.4
		c0-0.2,0-0.5-0.1-0.7c-0.1-0.2-0.2-0.4-0.4-0.6c-0.2-0.2-0.4-0.3-0.7-0.4s-0.6-0.2-1-0.2c-0.3,0-0.6,0-0.9,0.1
		c-0.2,0.1-0.5,0.1-0.7,0.2c-0.2,0.1-0.4,0.2-0.6,0.3c-0.2,0.1-0.3,0.2-0.5,0.4L69.4,31.1z M74.3,34.7c-0.4,0-0.8,0-1.2,0.1
		c-0.4,0-0.8,0.1-1.2,0.3c-0.3,0.1-0.6,0.3-0.9,0.5c-0.2,0.2-0.3,0.5-0.3,0.9c0,0.5,0.2,0.9,0.5,1.1c0.3,0.2,0.8,0.3,1.4,0.3
		c0.5,0,0.9-0.1,1.2-0.2c0.3-0.2,0.6-0.4,0.8-0.6c0.2-0.3,0.3-0.5,0.4-0.8c0.1-0.3,0.1-0.6,0.1-0.9v-0.6H74.3z"/>
	<path class="st3" d="M79,26.8c0-0.3,0.1-0.6,0.4-0.9s0.5-0.4,0.9-0.4s0.6,0.1,0.9,0.4s0.4,0.5,0.4,0.9c0,0.3-0.1,0.6-0.4,0.9
		S80.6,28,80.2,28s-0.6-0.1-0.9-0.4S79,27.1,79,26.8z M79.4,30h1.7v9h-1.7V30z"/>
	<path class="st3" d="M83.8,30h1.7v1.4h0c0.2-0.5,0.6-0.9,1.1-1.2s1.1-0.4,1.8-0.4c0.4,0,0.8,0.1,1.2,0.2c0.4,0.1,0.7,0.3,1,0.6
		c0.3,0.3,0.5,0.6,0.7,1.1c0.2,0.4,0.3,1,0.3,1.5V39h-1.7v-5.3c0-0.4-0.1-0.8-0.2-1.1c-0.1-0.3-0.3-0.5-0.5-0.7
		c-0.2-0.2-0.4-0.3-0.7-0.4c-0.2-0.1-0.5-0.1-0.8-0.1c-0.4,0-0.7,0.1-1,0.2c-0.3,0.1-0.6,0.3-0.8,0.5c-0.2,0.2-0.4,0.6-0.5,0.9
		c-0.1,0.4-0.2,0.8-0.2,1.3V39h-1.7V30z"/>
	<path class="st3" d="M94.1,26.8c0-0.3,0.1-0.6,0.4-0.9s0.5-0.4,0.9-0.4s0.6,0.1,0.9,0.4s0.4,0.5,0.4,0.9c0,0.3-0.1,0.6-0.4,0.9
		S95.7,28,95.4,28s-0.6-0.1-0.9-0.4S94.1,27.1,94.1,26.8z M94.5,30h1.7v9h-1.7V30z"/>
	<path class="st3" d="M98.9,30h1.7v1.4h0c0.2-0.5,0.6-0.9,1.1-1.2s1.1-0.4,1.8-0.4c0.4,0,0.8,0.1,1.2,0.2c0.4,0.1,0.7,0.3,1,0.6
		c0.3,0.3,0.5,0.6,0.7,1.1c0.2,0.4,0.3,1,0.3,1.5V39h-1.7v-5.3c0-0.4-0.1-0.8-0.2-1.1c-0.1-0.3-0.3-0.5-0.5-0.7
		c-0.2-0.2-0.4-0.3-0.7-0.4c-0.2-0.1-0.5-0.1-0.8-0.1c-0.4,0-0.7,0.1-1,0.2c-0.3,0.1-0.6,0.3-0.8,0.5c-0.2,0.2-0.4,0.6-0.5,0.9
		c-0.1,0.4-0.2,0.8-0.2,1.3V39h-1.7V30z"/>
	<path class="st3" d="M118.5,38.9c0,0.7-0.1,1.3-0.4,1.9c-0.2,0.6-0.6,1.1-1,1.5c-0.4,0.4-1,0.7-1.6,1c-0.6,0.2-1.3,0.3-2,0.3
		c-0.9,0-1.7-0.1-2.4-0.4c-0.7-0.2-1.4-0.7-2-1.3l1.2-1.4c0.4,0.5,0.9,0.8,1.4,1.1s1.1,0.4,1.8,0.4c0.6,0,1.2-0.1,1.6-0.3
		s0.8-0.4,1-0.7c0.2-0.3,0.4-0.6,0.5-1c0.1-0.4,0.2-0.8,0.2-1.1v-1.3h-0.1c-0.3,0.5-0.8,0.9-1.3,1.2c-0.6,0.3-1.2,0.4-1.8,0.4
		c-0.7,0-1.3-0.1-1.8-0.4s-1-0.6-1.5-1c-0.4-0.4-0.7-0.9-1-1.5c-0.2-0.6-0.3-1.2-0.3-1.8c0-0.7,0.1-1.3,0.3-1.9
		c0.2-0.6,0.5-1.1,0.9-1.5c0.4-0.4,0.9-0.8,1.4-1c0.6-0.2,1.2-0.4,1.9-0.4c0.6,0,1.2,0.1,1.8,0.4c0.6,0.3,1,0.6,1.4,1.1h0V30h1.7
		V38.9z M113.9,31.4c-0.5,0-0.9,0.1-1.2,0.2c-0.4,0.2-0.7,0.4-0.9,0.6c-0.3,0.3-0.4,0.6-0.6,1c-0.1,0.4-0.2,0.8-0.2,1.3
		c0,0.9,0.3,1.6,0.8,2.2c0.5,0.6,1.3,0.8,2.2,0.8c0.9,0,1.6-0.3,2.2-0.8c0.5-0.6,0.8-1.3,0.8-2.2c0-0.5-0.1-0.9-0.2-1.3
		c-0.1-0.4-0.3-0.7-0.6-1c-0.3-0.3-0.6-0.5-0.9-0.6S114.3,31.4,113.9,31.4z"/>
</g>
</svg>
