<svg id="Capa_1" data-name="Capa 1" xmlns="http://www.w3.org/2000/svg" viewBox="0 0 156.53 43.53"><title>logo-white</title><path d="M39.61,41.12H0V1.51H39.61ZM7.24,33.88H32.37V8.75H7.24V33.88Z" transform="translate(0 -0.05)" style="fill:#fff;opacity:0.5"/><g style="opacity:0.8"><polygon points="40.84 0 19.88 21.19 11.79 14.05 5.58 21.11 20.32 34.11 47.53 6.61 40.84 0" style="fill:#fff"/></g><path d="M63,5.68a3.8,3.8,0,0,0-1.45-1.14,4.21,4.21,0,0,0-1.8-.4,4.75,4.75,0,0,0-2.06.43,4.59,4.59,0,0,0-1.58,1.17,5.36,5.36,0,0,0-1,1.74,6.19,6.19,0,0,0-.36,2.13,5.92,5.92,0,0,0,.35,2,4.91,4.91,0,0,0,1,1.67,4.68,4.68,0,0,0,1.58,1.14,5.06,5.06,0,0,0,2.11.42,4.12,4.12,0,0,0,3.51-1.81l1.54,1.16a6.28,6.28,0,0,1-.53.6,5.21,5.21,0,0,1-1,.78,6.64,6.64,0,0,1-1.51.68,6.31,6.31,0,0,1-2,.3A6.75,6.75,0,0,1,56.84,16a7,7,0,0,1-2.18-1.6,7.05,7.05,0,0,1-1.85-4.75,8,8,0,0,1,.51-2.88,6.7,6.7,0,0,1,1.43-2.27A6.6,6.6,0,0,1,57,3a7.49,7.49,0,0,1,2.85-.53,7,7,0,0,1,2.61.51,5,5,0,0,1,2.1,1.58Z" transform="translate(0 -0.05)" style="fill:#fff;opacity:0.75"/><path d="M67.87,12.35a2.26,2.26,0,0,0,.26,1.07,2.58,2.58,0,0,0,.67.83,3,3,0,0,0,1,.53,3.41,3.41,0,0,0,1.14.19,2.53,2.53,0,0,0,1.39-.37,4.49,4.49,0,0,0,1.08-1l1.29,1a4.75,4.75,0,0,1-4,1.84,4.94,4.94,0,0,1-1.92-.36,4.24,4.24,0,0,1-1.47-1,4.54,4.54,0,0,1-.92-1.51,5.4,5.4,0,0,1-.32-1.87,5,5,0,0,1,.35-1.87,4.51,4.51,0,0,1,1-1.5,4.46,4.46,0,0,1,1.47-1A4.74,4.74,0,0,1,70.7,7a4.45,4.45,0,0,1,2,.42A4.07,4.07,0,0,1,74.09,8.5,4.46,4.46,0,0,1,74.86,10a6.72,6.72,0,0,1,.23,1.72v.61ZM73.27,11a3.38,3.38,0,0,0-.18-1,2.23,2.23,0,0,0-.49-.83,2.2,2.2,0,0,0-.8-.55,3,3,0,0,0-1.13-.2,2.69,2.69,0,0,0-1.15.24,2.87,2.87,0,0,0-.89.61,3.13,3.13,0,0,0-.56.85,2.39,2.39,0,0,0-.2.92Z" transform="translate(0 -0.05)" style="fill:#fff;opacity:0.75"/><path d="M77.14,7.22h1.71V8.61h0A2.7,2.7,0,0,1,79.35,8a2.83,2.83,0,0,1,.64-.5,3.24,3.24,0,0,1,.76-.33A2.72,2.72,0,0,1,81.59,7a2.29,2.29,0,0,1,.76.12L82.27,9l-.41-.1-.42,0a2.5,2.5,0,0,0-1.92.7,3.11,3.11,0,0,0-.67,2.18v4.53H77.14Z" transform="translate(0 -0.05)" style="fill:#fff;opacity:0.75"/><path d="M89,8.7H86.55v4.09c0,.25,0,.5,0,.75a1.94,1.94,0,0,0,.14.66,1.06,1.06,0,0,0,.38.48,1.3,1.3,0,0,0,.75.18,3.52,3.52,0,0,0,.63-.06,2,2,0,0,0,.59-.21v1.56a2.46,2.46,0,0,1-.79.24,6.45,6.45,0,0,1-.75.06A3.49,3.49,0,0,1,86,16.18a1.93,1.93,0,0,1-.8-.71,2.34,2.34,0,0,1-.3-1c0-.36,0-.73,0-1.1V8.7h-2V7.22h2V4.69h1.71V7.22H89Z" transform="translate(0 -0.05)" style="fill:#fff;opacity:0.75"/><path d="M90.94,4a1.18,1.18,0,0,1,.37-.88,1.19,1.19,0,0,1,.88-.37,1.24,1.24,0,0,1,.89,2.13,1.22,1.22,0,0,1-.89.37,1.19,1.19,0,0,1-.88-.37A1.18,1.18,0,0,1,90.94,4Zm.4,3.23h1.71v9H91.34Z" transform="translate(0 -0.05)" style="fill:#fff;opacity:0.75"/><path d="M96.43,8.7H94.49V7.22h1.94v-2a4.33,4.33,0,0,1,.69-2.69,2.87,2.87,0,0,1,2.39-.89l.6,0a3.66,3.66,0,0,1,.67.12l-.19,1.52a2.35,2.35,0,0,0-.48-.14,3.68,3.68,0,0,0-.49,0,1.64,1.64,0,0,0-.76.14,1,1,0,0,0-.45.41,1.67,1.67,0,0,0-.2.63,5.48,5.48,0,0,0,0,.85V7.22h2V8.7h-2v7.53H96.43Z" transform="translate(0 -0.05)" style="fill:#fff;opacity:0.75"/><path d="M101.83,4a1.18,1.18,0,0,1,.37-.88,1.18,1.18,0,0,1,.88-.37,1.19,1.19,0,0,1,.88.37,1.18,1.18,0,0,1,.37.88,1.18,1.18,0,0,1-.37.88,1.19,1.19,0,0,1-.88.37,1.18,1.18,0,0,1-.88-.37A1.18,1.18,0,0,1,101.83,4Zm.39,3.23h1.71v9h-1.71Z" transform="translate(0 -0.05)" style="fill:#fff;opacity:0.75"/><path d="M113.09,9.61a3.59,3.59,0,0,0-1-.75,3.18,3.18,0,0,0-2.47,0,2.5,2.5,0,0,0-.87.71,3.19,3.19,0,0,0-.53,1A4.07,4.07,0,0,0,108,11.8a3.39,3.39,0,0,0,.21,1.19,2.81,2.81,0,0,0,.59,1,2.63,2.63,0,0,0,.91.66,2.84,2.84,0,0,0,1.19.24,2.74,2.74,0,0,0,1.24-.26,3.14,3.14,0,0,0,.95-.75l1.22,1.22a3.85,3.85,0,0,1-1.55,1.06,5.33,5.33,0,0,1-1.87.32,5.07,5.07,0,0,1-1.91-.34,4.49,4.49,0,0,1-1.5-1,4.16,4.16,0,0,1-1-1.48,5.11,5.11,0,0,1-.35-1.91,5.17,5.17,0,0,1,.35-1.92,4.31,4.31,0,0,1,1-1.5,4.49,4.49,0,0,1,1.49-1A5.14,5.14,0,0,1,110.93,7a5.32,5.32,0,0,1,1.89.35,4.1,4.1,0,0,1,1.56,1.08Z" transform="translate(0 -0.05)" style="fill:#fff;opacity:0.75"/><path d="M115.85,8.32a4.86,4.86,0,0,1,1.67-1,5.76,5.76,0,0,1,1.9-.33,5.08,5.08,0,0,1,1.7.25,3.31,3.31,0,0,1,1.17.66,2.61,2.61,0,0,1,.67,1,2.92,2.92,0,0,1,.22,1.13v4.6c0,.32,0,.61,0,.88s0,.52.06.76h-1.52c0-.46-.06-.92-.06-1.37h0a3.27,3.27,0,0,1-1.35,1.23,4.25,4.25,0,0,1-1.8.36,4,4,0,0,1-1.2-.17,2.87,2.87,0,0,1-1-.51,2.44,2.44,0,0,1-.67-.85,2.51,2.51,0,0,1-.25-1.16,2.62,2.62,0,0,1,.39-1.47,3,3,0,0,1,1.07-1,5.27,5.27,0,0,1,1.57-.53,10.77,10.77,0,0,1,1.93-.16h1.26v-.38a1.95,1.95,0,0,0-.54-1.3,1.82,1.82,0,0,0-.66-.44,2.52,2.52,0,0,0-1-.16,3.75,3.75,0,0,0-.87.09,5.22,5.22,0,0,0-.67.24,3.64,3.64,0,0,0-.55.33l-.48.37Zm4.82,3.57c-.4,0-.82,0-1.24.07a4.49,4.49,0,0,0-1.16.26,2.2,2.2,0,0,0-.86.53,1.21,1.21,0,0,0-.33.87,1.24,1.24,0,0,0,.52,1.12,2.55,2.55,0,0,0,1.42.35,2.73,2.73,0,0,0,1.2-.24,2.33,2.33,0,0,0,1.23-1.46,3.38,3.38,0,0,0,.14-.93v-.57Z" transform="translate(0 -0.05)" style="fill:#fff;opacity:0.75"/><path d="M130.5,8.7h-2.45v4.09c0,.25,0,.5,0,.75a1.94,1.94,0,0,0,.15.66,1.06,1.06,0,0,0,.38.48,1.3,1.3,0,0,0,.75.18,3.34,3.34,0,0,0,.62-.06,1.8,1.8,0,0,0,.59-.21v1.56a2.38,2.38,0,0,1-.79.24,6.45,6.45,0,0,1-.75.06,3.56,3.56,0,0,1-1.53-.27,1.9,1.9,0,0,1-.79-.71,2.35,2.35,0,0,1-.31-1c0-.36,0-.73,0-1.1V8.7h-2V7.22h2V4.69h1.71V7.22h2.45Z" transform="translate(0 -0.05)" style="fill:#fff;opacity:0.75"/><path d="M132.43,4a1.26,1.26,0,0,1,1.26-1.25,1.19,1.19,0,0,1,.88.37,1.18,1.18,0,0,1,.37.88,1.18,1.18,0,0,1-.37.88,1.19,1.19,0,0,1-.88.37A1.26,1.26,0,0,1,132.43,4Zm.4,3.23h1.71v9h-1.71Z" transform="translate(0 -0.05)" style="fill:#fff;opacity:0.75"/><path d="M136.82,11.72a4.69,4.69,0,0,1,.37-1.84,4.81,4.81,0,0,1,8.84,0,4.52,4.52,0,0,1,.37,1.84,4.64,4.64,0,0,1-.37,1.86,4.86,4.86,0,0,1-1,1.5,4.78,4.78,0,0,1-1.52,1,5,5,0,0,1-3.76,0,4.78,4.78,0,0,1-1.52-1,4.66,4.66,0,0,1-1.39-3.36Zm1.83,0a3.72,3.72,0,0,0,.21,1.27,2.9,2.9,0,0,0,.58,1,2.73,2.73,0,0,0,.94.65,3,3,0,0,0,1.23.24,3.08,3.08,0,0,0,1.24-.24,2.79,2.79,0,0,0,.93-.65,2.92,2.92,0,0,0,.59-1,3.92,3.92,0,0,0,0-2.53,2.87,2.87,0,0,0-.59-1,2.76,2.76,0,0,0-.93-.64,3.08,3.08,0,0,0-1.24-.24,3,3,0,0,0-1.23.24,2.71,2.71,0,0,0-.94.64,2.85,2.85,0,0,0-.58,1A3.7,3.7,0,0,0,138.65,11.72Z" transform="translate(0 -0.05)" style="fill:#fff;opacity:0.75"/><path d="M148.55,7.22h1.7V8.61h0a2.57,2.57,0,0,1,1.12-1.17A3.73,3.73,0,0,1,153.26,7a4,4,0,0,1,1.24.2,2.79,2.79,0,0,1,1.05.62,3.18,3.18,0,0,1,.71,1.07,4.09,4.09,0,0,1,.27,1.55v5.8h-1.72V10.91a2.92,2.92,0,0,0-.17-1.08,1.85,1.85,0,0,0-.45-.72,1.72,1.72,0,0,0-.66-.4,2.43,2.43,0,0,0-.77-.12,2.62,2.62,0,0,0-1,.17,2,2,0,0,0-.8.54,2.46,2.46,0,0,0-.53.94,4.17,4.17,0,0,0-.2,1.35v4.64h-1.7Z" transform="translate(0 -0.05)" style="fill:#fff;opacity:0.75"/><path d="M56.45,27.28H52.12V25.57H62.61v1.71H58.28V39H56.45Z" transform="translate(0 -0.05)" style="fill:#fff"/><path d="M62.36,30h1.71v1.39h0a2.45,2.45,0,0,1,.46-.66,3,3,0,0,1,.63-.5,3.31,3.31,0,0,1,.77-.33,2.72,2.72,0,0,1,.84-.13,2.29,2.29,0,0,1,.76.12l-.08,1.84-.42-.1a2.83,2.83,0,0,0-.41,0,2.5,2.5,0,0,0-1.92.7,3.06,3.06,0,0,0-.67,2.18V39H62.36Z" transform="translate(0 -0.05)" style="fill:#fff"/><path d="M69.43,31.12a5,5,0,0,1,1.67-1,5.8,5.8,0,0,1,1.9-.33,5,5,0,0,1,1.7.25,3.14,3.14,0,0,1,1.17.66,2.64,2.64,0,0,1,.68,1,3.1,3.1,0,0,1,.21,1.13v4.6c0,.32,0,.61,0,.88s0,.52.06.76H75.32c0-.46-.06-.92-.06-1.37h0a3.27,3.27,0,0,1-1.35,1.23,4.27,4.27,0,0,1-1.81.36,4,4,0,0,1-1.2-.17,2.74,2.74,0,0,1-1-.51,2.46,2.46,0,0,1-.68-.85,2.95,2.95,0,0,1,.15-2.63,2.91,2.91,0,0,1,1.06-1A5.34,5.34,0,0,1,72,33.6a10.66,10.66,0,0,1,1.92-.16h1.26v-.38a2,2,0,0,0-.13-.68,1.94,1.94,0,0,0-.4-.62,1.86,1.86,0,0,0-.67-.44,2.45,2.45,0,0,0-1-.16,3.6,3.6,0,0,0-.86.09,5.39,5.39,0,0,0-.68.24,4.21,4.21,0,0,0-.55.33l-.47.37Zm4.83,3.57c-.41,0-.82,0-1.25.07a4.58,4.58,0,0,0-1.16.26,2.09,2.09,0,0,0-.85.53,1.21,1.21,0,0,0-.33.87,1.22,1.22,0,0,0,.52,1.12,2.54,2.54,0,0,0,1.41.35,2.73,2.73,0,0,0,1.2-.24,2.29,2.29,0,0,0,.8-.62,2.38,2.38,0,0,0,.44-.85,3.58,3.58,0,0,0,.13-.92v-.57Z" transform="translate(0 -0.05)" style="fill:#fff"/><path d="M79,26.79a1.26,1.26,0,1,1,.37.88A1.18,1.18,0,0,1,79,26.79Zm.4,3.23H81.1v9H79.39Z" transform="translate(0 -0.05)" style="fill:#fff"/><path d="M83.81,30h1.71v1.39h0a2.52,2.52,0,0,1,1.12-1.17,3.7,3.7,0,0,1,1.85-.45,4,4,0,0,1,1.24.2,2.79,2.79,0,0,1,1,.62,3.18,3.18,0,0,1,.71,1.07,4.06,4.06,0,0,1,.26,1.55V39H90.08V33.71a2.92,2.92,0,0,0-.17-1.08,1.85,1.85,0,0,0-.45-.72,1.72,1.72,0,0,0-.66-.4,2.48,2.48,0,0,0-.77-.12,2.71,2.71,0,0,0-1,.17,1.93,1.93,0,0,0-.79.54,2.61,2.61,0,0,0-.54.94,4.48,4.48,0,0,0-.19,1.35V39H83.81Z" transform="translate(0 -0.05)" style="fill:#fff"/><path d="M94.11,26.79a1.18,1.18,0,0,1,.37-.88,1.24,1.24,0,0,1,1.77,0,1.23,1.23,0,0,1,0,1.76,1.24,1.24,0,0,1-1.77,0A1.18,1.18,0,0,1,94.11,26.79Zm.4,3.23h1.71v9H94.51Z" transform="translate(0 -0.05)" style="fill:#fff"/><path d="M98.94,30h1.71v1.39h0a2.5,2.5,0,0,1,1.13-1.17,3.66,3.66,0,0,1,1.84-.45,4,4,0,0,1,1.24.2,2.79,2.79,0,0,1,1,.62,3,3,0,0,1,.71,1.07,4.05,4.05,0,0,1,.27,1.55V39h-1.71V33.71a3.14,3.14,0,0,0-.17-1.08,2,2,0,0,0-.46-.72,1.72,1.72,0,0,0-.66-.4,2.43,2.43,0,0,0-.77-.12,2.62,2.62,0,0,0-1,.17,2,2,0,0,0-.8.54,2.46,2.46,0,0,0-.53.94,4.19,4.19,0,0,0-.19,1.35V39H98.94Z" transform="translate(0 -0.05)" style="fill:#fff"/><path d="M118.53,39a4.72,4.72,0,0,1-.36,1.87,4.2,4.2,0,0,1-1,1.46,4.27,4.27,0,0,1-1.56,1,5.65,5.65,0,0,1-2,.34,7.41,7.41,0,0,1-2.37-.36,5.53,5.53,0,0,1-2-1.25l1.16-1.44a4.73,4.73,0,0,0,1.44,1.09,4,4,0,0,0,1.77.37,3.77,3.77,0,0,0,1.57-.28,2.7,2.7,0,0,0,1-.71,2.46,2.46,0,0,0,.52-1,4,4,0,0,0,.16-1.13V37.54h-.06a3,3,0,0,1-1.34,1.21,4.2,4.2,0,0,1-1.78.39,4.77,4.77,0,0,1-1.83-.35,4.45,4.45,0,0,1-1.45-1,4.24,4.24,0,0,1-1-1.46,4.86,4.86,0,0,1-.35-1.84,5.15,5.15,0,0,1,.33-1.85,4.38,4.38,0,0,1,.92-1.51,4.21,4.21,0,0,1,1.44-1,4.82,4.82,0,0,1,1.89-.36,4.16,4.16,0,0,1,1.78.4,3.28,3.28,0,0,1,1.36,1.12h0V30h1.71Zm-4.68-7.56a3.21,3.21,0,0,0-1.23.23,2.72,2.72,0,0,0-1.52,1.64,3.7,3.7,0,0,0-.21,1.26,3,3,0,0,0,.8,2.2,3.27,3.27,0,0,0,4.33,0,3.05,3.05,0,0,0,.8-2.2,3.7,3.7,0,0,0-.21-1.26,2.87,2.87,0,0,0-.59-1,2.94,2.94,0,0,0-.93-.65A3.26,3.26,0,0,0,113.85,31.39Z" transform="translate(0 -0.05)" style="fill:#fff"/></svg>