<?xml version="1.0" standalone="no"?>
<!DOCTYPE svg PUBLIC "-//W3C//DTD SVG 20010904//EN"
 "http://www.w3.org/TR/2001/REC-SVG-20010904/DTD/svg10.dtd">
<svg version="1.0" xmlns="http://www.w3.org/2000/svg"
 width="700.000000pt" height="700.000000pt" viewBox="0 0 700.000000 700.000000"
 preserveAspectRatio="xMidYMid meet">
<metadata>
Created by potrace 1.11, written by Peter Selinger 2001-2013
</metadata>
<g transform="translate(0.000000,700.000000) scale(0.100000,-0.100000)"
fill="#000000" stroke="none">
<path d="M780 4428 l0 -1823 -100 -110 c-54 -60 -99 -113 -99 -116 -1 -4 44
-46 99 -94 l100 -87 0 -749 0 -749 850 0 849 0 81 -72 81 -71 72 71 72 72
1768 0 1767 0 0 1788 0 1788 65 64 65 64 -65 66 -65 66 0 857 0 857 -2770 0
-2770 0 0 -1822z m4528 748 l-3 -54 -1360 -1376 c-748 -757 -1363 -1375 -1367
-1373 -4 1 -183 157 -397 346 l-391 343 0 1084 0 1084 1760 0 1761 0 -3 -54z
m-3 -3453 c-6 -17 -1509 -19 -1503 -3 2 6 341 352 753 770 l750 758 3 -756 c1
-416 0 -763 -3 -769z"/>
</g>
</svg>
